# xmcd
#
# Track frame offsets: 
#        225
#        27120
#        47837
#        71580
#        92610
#        113827
#        152172
#        181832
#        207745
#        236945
#        260017
#
# Disc length: 3861 seconds
#
# Revision: 1
# Processed by: cddbd v1.5.2PL0 Copyright (c) Steve Scherf et al.
# Submitted via: ExactAudioCopy v1.0b3
#
DISCID=9c0f120b
DTITLE=Grzegorz Kapołka Band - I'm Believing
DYEAR=1996
DGENRE=Jazz
TTITLE0=I’m Believing
TTITLE1=Introduction
TTITLE2=Genova L. Calda
TTITLE3=Bear’s Blues
TTITLE4=Bikson and Venter
TTITLE5=Go Away
TTITLE6=Oj Marta, oj Marta
TTITLE7=D. K. N.
TTITLE8=Sekst Blues
TTITLE9=Angora Dora
TTITLE10=O tym nigdy sie nie dowiesz, o tym nigdy Ci nie powiem
EXTD=
EXTT0=
EXTT1=
EXTT2=
EXTT3=
EXTT4=
EXTT5=
EXTT6=
EXTT7=
EXTT8=
EXTT9=
EXTT10=
PLAYORDER=
